<?xml version="1.0" standalone="no"?>
<!DOCTYPE svg PUBLIC "-//W3C//DTD SVG 20010904//EN"
 "http://www.w3.org/TR/2001/REC-SVG-20010904/DTD/svg10.dtd">
<svg version="1.0" xmlns="http://www.w3.org/2000/svg"
 width="1530.000000pt" height="1530.000000pt" viewBox="0 0 1530.000000 1530.000000"
 preserveAspectRatio="xMidYMid meet">
<metadata>
Created by potrace 1.14, written by Peter Selinger 2001-2017
</metadata>
<g transform="translate(0.000000,1530.000000) scale(0.100000,-0.100000)"
fill="#000000" stroke="none">
<path d="M1430 13740 c0 -1241 3 -1560 13 -1561 6 0 1461 -2 3232 -4 1771 -1
3234 -5 3250 -8 17 -3 62 -8 100 -11 39 -4 81 -8 95 -10 14 -3 50 -7 80 -11
75 -8 197 -30 310 -55 819 -183 1409 -629 1670 -1265 18 -44 36 -89 41 -100
20 -47 68 -228 87 -325 43 -214 56 -365 56 -620 -1 -286 -31 -503 -104 -745
-23 -77 -98 -267 -111 -280 -5 -5 -9 -17 -9 -26 0 -10 -3 -19 -7 -21 -16 -6
-54 -89 -47 -101 4 -6 3 -9 -1 -4 -5 4 -27 -24 -49 -61 -37 -62 -132 -200
-145 -212 -3 -3 -24 -27 -46 -55 -69 -87 -266 -279 -363 -353 -247 -189 -537
-331 -862 -421 -107 -29 -358 -78 -470 -90 -52 -6 -120 -14 -150 -18 -30 -3
-743 -8 -1585 -10 l-1530 -4 3 856 2 855 -1730 0 -1730 0 0 -4540 0 -4540
1730 0 1730 0 0 2148 0 2147 1473 0 c1297 1 1686 5 1817 20 19 2 73 7 120 10
47 4 103 8 125 11 22 3 62 7 89 9 86 8 218 25 356 46 74 11 151 22 170 25 19
3 42 7 51 10 14 4 106 21 214 41 81 14 388 88 535 129 159 44 523 162 585 189
35 15 66 27 80 31 6 1 71 28 145 59 254 107 677 325 807 416 23 16 46 29 52
29 6 0 11 5 11 10 0 6 6 10 13 10 12 0 306 204 382 265 21 17 63 50 94 75 31
24 58 47 61 50 3 3 19 16 35 29 88 67 356 325 465 447 218 243 452 563 593
809 25 44 57 100 71 125 52 89 205 407 254 530 96 239 198 570 238 770 3 14 9
41 14 60 5 19 11 52 14 72 3 21 10 57 15 80 17 73 42 240 56 368 22 200 23
216 32 360 10 161 10 762 0 905 -12 171 -16 226 -22 275 -11 93 -14 116 -20
165 -10 77 -55 348 -59 354 -2 3 -7 23 -10 43 -3 21 -11 59 -17 85 -6 27 -12
55 -14 63 -2 8 -13 53 -25 100 -193 755 -543 1439 -1030 2015 -229 271 -627
633 -908 826 -409 282 -792 479 -1285 665 -288 108 -713 227 -972 273 -33 6
-71 13 -85 16 -133 28 -457 75 -620 90 -36 3 -81 8 -100 10 -19 2 -78 7 -130
10 -52 3 -117 9 -145 13 -27 3 -1610 8 -3517 9 l-3468 4 0 -1561z"/>
</g>
</svg>
